REM DIRINDEX 1\2,1\3,1\4
REM DIRNAME folder01,folder02,folder03,folder04
TITLE ""
FILE "166 166_TOEFL_3900.mp3" MP3
  TRACK 01 AUDIO
    TITLE "2:cjc151_7234"
    INDEX 01 00:00:00
  TRACK 02 AUDIO
    TITLE "0:"
    INDEX 01 00:01:42
  TRACK 03 AUDIO
    TITLE "3:cjc151_7235"
    INDEX 01 00:03:19
  TRACK 04 AUDIO
    TITLE "0:"
    INDEX 01 00:07:31
  TRACK 05 AUDIO
    TITLE "2:cjc151_7236"
    INDEX 01 00:09:10
  TRACK 06 AUDIO
    TITLE "0:"
    INDEX 01 00:10:37
  TRACK 07 AUDIO
    TITLE "3:cjc151_7237"
    INDEX 01 00:12:18
  TRACK 08 AUDIO
    TITLE "0:"
    INDEX 01 00:15:46
  TRACK 09 AUDIO
    TITLE "2:cjc151_7238"
    INDEX 01 00:17:25
  TRACK 10 AUDIO
    TITLE "0:"
    INDEX 01 00:18:33
  TRACK 11 AUDIO
    TITLE "3:cjc151_7239"
    INDEX 01 00:20:24
  TRACK 12 AUDIO
    TITLE "0:"
    INDEX 01 00:24:00
  TRACK 13 AUDIO
    TITLE "2:cjc151_7240"
    INDEX 01 00:25:52
  TRACK 14 AUDIO
    TITLE "0:"
    INDEX 01 00:26:64
  TRACK 15 AUDIO
    TITLE "3:cjc151_7241"
    INDEX 01 00:28:55
  TRACK 16 AUDIO
    TITLE "0:"
    INDEX 01 00:31:65
  TRACK 17 AUDIO
    TITLE "2:cjc151_7242"
    INDEX 01 00:33:42
  TRACK 18 AUDIO
    TITLE "0:"
    INDEX 01 00:34:71
  TRACK 19 AUDIO
    TITLE "3:cjc151_7243"
    INDEX 01 00:36:50
  TRACK 20 AUDIO
    TITLE "0:"
    INDEX 01 00:40:09
  TRACK 21 AUDIO
    TITLE "2:cjc151_7244"
    INDEX 01 00:41:65
  TRACK 22 AUDIO
    TITLE "0:"
    INDEX 01 00:43:05
  TRACK 23 AUDIO
    TITLE "3:cjc151_7245"
    INDEX 01 00:44:60
  TRACK 24 AUDIO
    TITLE "0:"
    INDEX 01 00:48:55
  TRACK 25 AUDIO
    TITLE "2:cjc151_7246"
    INDEX 01 00:50:35
  TRACK 26 AUDIO
    TITLE "0:"
    INDEX 01 00:51:62
  TRACK 27 AUDIO
    TITLE "3:cjc151_7247"
    INDEX 01 00:53:41
  TRACK 28 AUDIO
    TITLE "0:"
    INDEX 01 00:56:41
  TRACK 29 AUDIO
    TITLE "2:cjc151_7248"
    INDEX 01 00:58:26
  TRACK 30 AUDIO
    TITLE "0:"
    INDEX 01 01:00:55
  TRACK 31 AUDIO
    TITLE "3:cjc151_7249"
    INDEX 01 01:02:34
  TRACK 32 AUDIO
    TITLE "0:"
    INDEX 01 01:05:32
  TRACK 33 AUDIO
    TITLE "2:cjc151_7250"
    INDEX 01 01:07:14
  TRACK 34 AUDIO
    TITLE "0:"
    INDEX 01 01:08:64
  TRACK 35 AUDIO
    TITLE "3:cjc151_7251"
    INDEX 01 01:10:47
  TRACK 36 AUDIO
    TITLE "0:"
    INDEX 01 01:14:47
  TRACK 37 AUDIO
    TITLE "2:cjc151_7252"
    INDEX 01 01:16:24
  TRACK 38 AUDIO
    TITLE "0:"
    INDEX 01 01:17:51
  TRACK 39 AUDIO
    TITLE "3:cjc151_7253"
    INDEX 01 01:19:32
  TRACK 40 AUDIO
    TITLE "0:"
    INDEX 01 01:22:62
  TRACK 41 AUDIO
    TITLE "2:cjc151_7254"
    INDEX 01 01:24:41
  TRACK 42 AUDIO
    TITLE "0:"
    INDEX 01 01:25:58
  TRACK 43 AUDIO
    TITLE "3:cjc151_7255"
    INDEX 01 01:27:38
  TRACK 44 AUDIO
    TITLE "0:"
    INDEX 01 01:30:62
  TRACK 45 AUDIO
    TITLE "2:cjc151_7256"
    INDEX 01 01:32:43
  TRACK 46 AUDIO
    TITLE "0:"
    INDEX 01 01:33:70
  TRACK 47 AUDIO
    TITLE "3:cjc151_7257"
    INDEX 01 01:35:49
  TRACK 48 AUDIO
    TITLE "0:"
    INDEX 01 01:40:11
  TRACK 49 AUDIO
    TITLE "2:cjc151_7258"
    INDEX 01 01:41:67
  TRACK 50 AUDIO
    TITLE "0:"
    INDEX 01 01:43:09
  TRACK 51 AUDIO
    TITLE "3:cjc151_7259"
    INDEX 01 01:44:62
  TRACK 52 AUDIO
    TITLE "0:"
    INDEX 01 01:49:57
  TRACK 53 AUDIO
    TITLE "2:cjc151_7260"
    INDEX 01 01:51:36
  TRACK 54 AUDIO
    TITLE "0:"
    INDEX 01 01:53:02
  TRACK 55 AUDIO
    TITLE "3:cjc151_7261"
    INDEX 01 01:54:56
  TRACK 56 AUDIO
    TITLE "0:"
    INDEX 01 01:59:08
  TRACK 57 AUDIO
    TITLE "2:cjc151_7262"
    INDEX 01 02:00:61
  TRACK 58 AUDIO
    TITLE "0:"
    INDEX 01 02:02:07
  TRACK 59 AUDIO
    TITLE "3:cjc151_7263"
    INDEX 01 02:03:65
  TRACK 60 AUDIO
    TITLE "0:"
    INDEX 01 02:07:31
  TRACK 61 AUDIO
    TITLE "2:cjc151_7264"
    INDEX 01 02:09:11
  TRACK 62 AUDIO
    TITLE "0:"
    INDEX 01 02:10:51
  TRACK 63 AUDIO
    TITLE "3:cjc151_7265"
    INDEX 01 02:12:33
  TRACK 64 AUDIO
    TITLE "0:"
    INDEX 01 02:15:51
  TRACK 65 AUDIO
    TITLE "2:cjc151_7266"
    INDEX 01 02:17:28
  TRACK 66 AUDIO
    TITLE "0:"
    INDEX 01 02:18:72
  TRACK 67 AUDIO
    TITLE "3:cjc151_7267"
    INDEX 01 02:20:52
  TRACK 68 AUDIO
    TITLE "0:"
    INDEX 01 02:24:38
  TRACK 69 AUDIO
    TITLE "2:cjc151_7268"
    INDEX 01 02:26:17
  TRACK 70 AUDIO
    TITLE "0:"
    INDEX 01 02:27:16
  TRACK 71 AUDIO
    TITLE "3:cjc151_7269"
    INDEX 01 02:29:09
  TRACK 72 AUDIO
    TITLE "0:"
    INDEX 01 02:32:24
  TRACK 73 AUDIO
    TITLE "2:cjc151_7270"
    INDEX 01 02:34:03
  TRACK 74 AUDIO
    TITLE "0:"
    INDEX 01 02:35:20
  TRACK 75 AUDIO
    TITLE "3:cjc151_7271"
    INDEX 01 02:36:72
  TRACK 76 AUDIO
    TITLE "0:"
    INDEX 01 02:40:64
  TRACK 77 AUDIO
    TITLE "2:cjc151_7272"
    INDEX 01 02:42:59
  TRACK 78 AUDIO
    TITLE "0:"
    INDEX 01 02:44:11
  TRACK 79 AUDIO
    TITLE "3:cjc151_7273"
    INDEX 01 02:45:63
  TRACK 80 AUDIO
    TITLE "0:"
    INDEX 01 02:49:12
  TRACK 81 AUDIO
    TITLE "2:cjc151_7274"
    INDEX 01 02:50:65
  TRACK 82 AUDIO
    TITLE "0:"
    INDEX 01 02:52:26
  TRACK 83 AUDIO
    TITLE "3:cjc151_7275"
    INDEX 01 02:54:23
  TRACK 84 AUDIO
    TITLE "0:"
    INDEX 01 02:57:00
  TRACK 85 AUDIO
    TITLE "2:cjc151_7276"
    INDEX 01 02:58:52
  TRACK 86 AUDIO
    TITLE "0:"
    INDEX 01 03:00:04
  TRACK 87 AUDIO
    TITLE "3:cjc151_7277"
    INDEX 01 03:01:58
  TRACK 88 AUDIO
    TITLE "0:"
    INDEX 01 03:05:29
